# xmcd CD database file
#
# Track frame offsets:
#	150
#	15078
#	32638
#	52176
#	61511
#	76892
#
# Disc length: 1203 seconds
#
# Revision: 0
# Processed by: cddbd v1.4PL0 Copyright (c) Steve Scherf et al.
# Submitted via: Feurio! 1.63 - http://www.feurio.com
#
DISCID=3704b106
DTITLE=Fuzzy Love - Schmalzwald Sessions
DYEAR=1900
DGENRE=schmalz
TTITLE0=Lady Marmalade (Bob Crewe/ Kenny Nolan)
TTITLE1=Mandy (Richard Kerr/ Scott English)
TTITLE2=Spooky Magic Woman (Harry Middlebrooks/ Mike Shapiro, Peter Green)
TTITLE3=Ya-Ya (Clarence L. Lewis/ Morris Levy)
TTITLE4=Black Hole Sun (Chris Cornell)
TTITLE5=I Like Beer (Tom T. Hall)
EXTD=Hausband des Smalzwalds (Club in Berlin)
EXTT0=
EXTT1=
EXTT2=
EXTT3=
EXTT4=
EXTT5=
PLAYORDER=
